{"asset":{"version":"2.0","generator":"Blockbench 4.10.3 glTF exporter"},"scenes":[{"nodes":[1],"name":"blockbench_export"}],"scene":0,"nodes":[{"name":"cylinder","mesh":0},{"children":[0]}],"bufferViews":[{"buffer":0,"byteOffset":0,"byteLength":4416,"target":34962,"byteStride":12},{"buffer":0,"byteOffset":4416,"byteLength":4416,"target":34962,"byteStride":12},{"buffer":0,"byteOffset":8832,"byteLength":2944,"target":34962,"byteStride":8},{"buffer":0,"byteOffset":11776,"byteLength":1056,"target":34963}],"buffers":[{"byteLength":12832,"uri":"data:application/octet-stream;base64,"}],"accessors":[{"bufferView":0,"componentType":5126,"count":368,"max":[0.28125,0.7895796895027161,0.1875],"min":[-0.44520801305770874,-0.7250756621360779,-0.1875],"type":"VEC3"},{"bufferView":1,"componentType":5126,"count":368,"max":[0.9681307077407837,0.9988760352134705,0.9974462985992432],"min":[-0.999282956123352,-0.9891011714935303,-0.996989369392395],"type":"VEC3"},{"bufferView":2,"componentType":5126,"count":368,"max":[0.4921875,0.7416162490844727],"min":[0,0],"type":"VEC2"},{"bufferView":3,"componentType":5123,"count":528,"max":[367],"min":[0],"type":"SCALAR"}],"materials":[{"pbrMetallicRoughness":{"metallicFactor":0,"roughnessFactor":1,"baseColorTexture":{"index":0}},"alphaMode":"MASK","alphaCutoff":0.05,"doubleSided":true}],"textures":[{"sampler":0,"source":0,"name":"texture"}],"samplers":[{"magFilter":9728,"minFilter":9728,"wrapS":33071,"wrapT":33071}],"images":[{"mimeType":"image/png","uri":"data:image/png;base64,"}],"meshes":[{"primitives":[{"mode":4,"attributes":{"POSITION":0,"NORMAL":1,"TEXCOORD_0":2},"indices":3,"material":0}]}]}